<svg width="1000" height="314" viewBox="0 0 1000 314" fill="none" xmlns="http://www.w3.org/2000/svg">
<path d="M342.306 103.91L339.134 122.592H364.679L349.923 209.564H367.582L382.338 122.592H407.884L411.056 103.91H342.306Z" fill="black"/>
<path d="M415.505 103.91L397.572 209.564H461.735L464.903 190.874H418.054L422.698 163.506H463.896L467.068 144.815H425.867L429.638 122.592H474.489L477.661 103.91H415.505Z" fill="black"/>
<path d="M487.965 103.91L470.04 209.564H529.72L532.974 190.434H490.942L505.629 103.91H487.965Z" fill="black"/>
<path d="M555.162 103.91L537.232 209.564H554.886L560.961 173.804L571 163.212L589.269 209.564H611.987L586.077 147.171L627.922 103.91H605.073L565.527 146.877L572.818 103.91H555.162Z" fill="black"/>
<path fill-rule="evenodd" clip-rule="evenodd" d="M666.812 119.795C681.418 119.795 687.446 134.214 683.644 156.59C679.527 180.876 668.053 193.67 654.392 193.67C639.911 193.67 633.882 179.253 637.707 156.737C641.875 132.166 653.74 119.795 666.812 119.795ZM670.098 101.112C651.506 101.112 627.236 114.348 620.045 156.737C613.006 198.229 631.803 212.362 651.229 212.362C669.943 212.362 694.059 199.266 701.299 156.59C708.476 114.348 688.465 101.112 670.098 101.112Z" fill="black"/>
<path d="M717.373 103.91L699.441 209.564H715.93L730.886 121.418H731.124L731.587 209.564H748.892L779.653 121.271L779.913 121.132L764.9 209.564H781.382L799.306 103.91H773.765L744.562 187.196H744.325L743.152 103.91H717.373Z" fill="black"/>
<path d="M839.976 101.112C812.543 101.112 803.962 121.858 801.939 133.781C798.042 156.737 810.429 161.45 823.534 164.672L832.269 167.339C840.766 169.981 846.636 172.182 845.211 180.573C843.238 192.203 832.318 194.119 825.37 194.119C815.601 194.119 808.578 189.699 810.259 177.043H793.305C789.488 199.567 800.856 212.362 823.102 212.362C839.934 212.362 858.34 203.09 862.637 177.785C866.128 157.178 854.239 152.317 844.753 149.226L825.793 143.046C822.434 142.026 817.295 140.402 818.748 131.865C820.346 122.445 828.877 119.355 835.587 119.355C851.008 119.355 850.519 130.543 850.193 135.248H867.147C869.226 122.307 865.867 101.112 839.976 101.112Z" fill="black"/>
<path d="M882.527 103.91L864.595 209.564H928.765L931.931 190.874H885.08L889.727 163.506H930.927L934.099 144.815H892.893L896.666 122.592H941.52L944.693 103.91H882.527Z" fill="black"/>
<path d="M954.998 103.91L937.06 209.564H996.754L1000 190.434H957.969L972.647 103.91H954.998Z" fill="black"/>
<path d="M69.3191 144.284L105.124 60.1665L196.056 49.0345L251.194 122.013L215.396 206.131L124.463 217.262L69.3191 144.284Z" fill="white"/>
<mask id="mask0_0_1" style="mask-type:luminance" maskUnits="userSpaceOnUse" x="69" y="49" width="183" height="169">
<path d="M69.3191 144.284L105.124 60.1665L196.056 49.0345L251.194 122.013L215.396 206.131L124.463 217.262L69.3191 144.284Z" fill="white"/>
</mask>
<g mask="url(#mask0_0_1)">
<path d="M221.409 218.706C202.787 278.27 172.002 316.876 142.008 313.197C105.947 308.786 81.5023 234.738 94.3795 147.741C107.284 60.5821 145.511 -2.43976 183.938 0.0722838C209.082 1.71143 228.642 35.7019 234.196 81.5808C227.24 55.6242 216.744 28.7456 198.84 26.3881C174.159 23.1417 141.82 72.929 128.512 141.609C116.153 205.405 125.972 268.965 154.835 272.724C173.483 275.147 205.323 255.665 221.409 218.706Z" fill="white"/>
<path d="M237.946 213.111C271.546 197.96 305.629 180.37 302.407 159.33C297.516 127.42 223.451 115.44 158.55 121.825C129.923 124.639 27.4803 145.279 29.0909 188.427C29.5602 200.986 63.1585 217.54 91.2766 225.662C47.5085 220.777 3.32077 199.035 0.222754 172.835C-4.45036 133.202 64.9568 92.4921 156.334 82.7724C247.023 73.1411 325.458 96.7168 330.839 136.26C334.889 166.008 296.149 194.69 237.946 213.111Z" fill="white"/>
</g>
<path d="M235.7 214.237L147.896 224.994L94.6568 154.534L129.221 73.3115L217.035 62.5719L270.268 133.031L235.7 214.237Z" fill="#656263"/>
<path d="M221.409 218.706C202.787 278.269 172.002 316.883 142.008 313.197C105.947 308.786 81.5023 234.738 94.3795 147.751C107.284 60.5821 145.511 -2.43975 183.938 0.0722993C209.082 1.71144 228.642 35.7019 234.196 81.5808C227.24 55.6242 216.744 28.7457 198.84 26.3881C174.159 23.1417 141.82 72.929 128.512 141.609C116.153 205.414 125.972 268.965 154.835 272.724C173.483 275.147 205.323 255.665 221.409 218.706Z" fill="#B0AEAF"/>
<path d="M237.946 213.111C271.546 197.96 305.629 180.37 302.407 159.33C297.516 127.42 223.451 115.44 158.55 121.825C129.923 124.639 27.4803 145.279 29.0909 188.435C29.5602 200.986 63.1585 217.54 91.2766 225.662C47.5085 220.777 3.32077 199.035 0.222754 172.835C-4.45036 133.202 64.9568 92.4921 156.334 82.7724C247.024 73.1411 325.458 96.7168 330.839 136.26C334.889 166.008 296.149 194.69 237.946 213.111Z" fill="#B0AEAF"/>
<path d="M213.609 203.766L125.62 214.532L72.2672 143.917L106.909 62.54L194.897 51.766L248.247 122.38L213.609 203.766Z" fill="#ED1C24"/>
<mask id="mask1_0_1" style="mask-type:luminance" maskUnits="userSpaceOnUse" x="72" y="51" width="177" height="164">
<path d="M213.609 203.766L125.62 214.532L72.2672 143.917L106.909 62.54L194.897 51.766L248.247 122.38L213.609 203.766Z" fill="white"/>
</mask>
<g mask="url(#mask1_0_1)">
<path d="M221.409 218.706C202.787 278.27 172.002 316.876 142.008 313.197C105.947 308.786 81.5023 234.738 94.3795 147.741C107.284 60.5821 145.511 -2.43976 183.938 0.0722838C209.082 1.71143 228.642 35.7019 234.196 81.5808C227.24 55.6242 216.744 28.7456 198.84 26.3881C174.159 23.1417 141.82 72.929 128.512 141.609C116.153 205.405 125.972 268.965 154.835 272.724C173.483 275.147 205.323 255.665 221.409 218.706Z" fill="white"/>
<path d="M237.946 213.111C271.546 197.96 305.629 180.37 302.407 159.33C297.516 127.42 223.451 115.44 158.55 121.825C129.923 124.639 27.4803 145.279 29.0909 188.427C29.5602 200.986 63.1585 217.54 91.2766 225.662C47.5085 220.777 3.32077 199.035 0.222754 172.835C-4.45036 133.202 64.9568 92.4921 156.334 82.7724C247.023 73.1411 325.458 96.7168 330.839 136.26C334.889 166.008 296.149 194.69 237.946 213.111Z" fill="white"/>
</g>
</svg>
